Game of Thrones S03E06 The Climb 1080p HDTV DD5.1 x264-LiPAN


RLS Info: Sunday May 05th, 2013


IMDB Info: http://www.imdb.com/title/tt0944947/


TV Info: http://www.tvrage.com/Game_of_Thrones


General
Complete name : Game of Thrones S03E06 The Climb 1080p HDTV DD5.1 x264-LiPAN.mkv
Format : Matroska
Format version : Version 4 / Version 2
File size : 2.87 GiB
Duration : 53mn 19s
Overall bit rate : 7 701 Kbps
Encoded date : UTC 2013-05-06 12:19:47
Writing application : mkvmerge v6.1.0 (ΓÇÿOld DevilΓÇÖ)
Writing library : libebml v1.3.0 + libmatroska v1.4.0

Video
ID : 1
Format : AVC
Format/Info : Advanced Video Codec
Format settings, CABAC : Yes
Format settings, ReFrames : 4 frames
Codec ID : V_MPEG4/ISO/AVC
Duration : 53mn 19s
Bit rate : 7 163 Kbps
Width : 1 920 pixels
Height : 1 072 pixels
Display aspect ratio : 16:9
Frame rate : 23.976 fps
Color space : YUV
Chroma subsampling : 4:2:0
Bit depth : 8 bits
Scan type : Progressive
Bits/(Pixel*Frame) : 0.145
Stream size : 2.67 GiB (93%)
Title : Game of Thrones ΓÇô S03E06
Writing library : x264 core 130 r2273 b3065e6
Language : English

Audio
ID : 2
Format : AC-3
Format/Info : Audio Coding 3
Mode extension : CM (complete main)
Codec ID : A_AC3
Duration : 53mn 19s
Bit rate mode : Constant
Bit rate : 384 Kbps
Channel(s) : 6 channels
Channel positions : Front: L C R, Side: L R, LFE
Sampling rate : 48.0 KHz
Bit depth : 16 bits
Compression mode : Lossy
Stream size : 146 MiB (5%)
Title : DD 5.1
Language : English

Text
ID : 3
Format : UTF-8
Codec ID : S_TEXT/UTF8
Codec ID/Info : UTF-8 Plain Text
Language : English


Poster:

 
http://i.imgur.com/i1BGWnh.jpg


Screenshots:

 
http://i.imgur.com/RYJpibW.jpg


SEED AND ENJOY!